<svg xmlns="http://www.w3.org/2000/svg" xmlns:xlink="http://www.w3.org/1999/xlink" xmlns:lucid="lucid" width="1332.15" height="572"><g transform="translate(-79 -329.4999999999998)" lucid:page-tab-id="0_0"><path d="M660 546a6 6 0 0 1 6-6h308a6 6 0 0 1 6 6v118a6 6 0 0 1-6 6H666a6 6 0 0 1-6-6z" stroke="#b5d6ff" stroke-width="2" fill="#cfe4ff"/><use xlink:href="#a" transform="matrix(1,0,0,1,668,548) translate(91.04320987654322 17.77777777777778)"/><use xlink:href="#b" transform="matrix(1,0,0,1,668,548) translate(131.72222222222223 17.77777777777778)"/><path d="M1070.15 726.5a6 6 0 0 1 6-6h308a6 6 0 0 1 6 6v148a6 6 0 0 1-6 6h-308a6 6 0 0 1-6-6z" stroke="#b5d6ff" stroke-width="2" fill="#cfe4ff"/><use xlink:href="#c" transform="matrix(1,0,0,1,1078.1543898789537,728.4999999999998) translate(58.29629629629629 17.77777777777778)"/><use xlink:href="#d" transform="matrix(1,0,0,1,1078.1543898789537,728.4999999999998) translate(166.69135802469134 17.77777777777778)"/><path d="M1070.15 436.5a6 6 0 0 1 6-6h308a6 6 0 0 1 6 6v148a6 6 0 0 1-6 6h-308a6 6 0 0 1-6-6z" stroke="#b5d6ff" stroke-width="2" fill="#cfe4ff"/><use xlink:href="#e" transform="matrix(1,0,0,1,1078.1543898789537,438.4999999999998) translate(89.0679012345679 17.77777777777778)"/><use xlink:href="#d" transform="matrix(1,0,0,1,1078.1543898789537,438.4999999999998) translate(135.91975308641975 17.77777777777778)"/><path d="M100 589.67a6 6 0 0 1 6-6h178a6 6 0 0 1 6 6v51.66a6 6 0 0 1-6 6H106a6 6 0 0 1-6-6z" stroke="#febed9" stroke-width="2" fill="#fff0f0"/><path d="M119 583.67v63.66m152-63.66v63.66" stroke="#febed9" stroke-width="2" fill="none"/><use xlink:href="#f" transform="matrix(1,0,0,1,128.75,588.6666666666665) translate(33.16666666666667 31.444444444444443)"/><path d="M454.45 465.8A7.8 7.8 0 0 1 462 460h132a4.6 4.6 0 0 1 4.45 5.8l-12.9 48.4A7.8 7.8 0 0 1 578 520H446a4.6 4.6 0 0 1-4.45-5.8z" stroke="#eec4ff" stroke-width="2" fill="#f4d9ff"/><use xlink:href="#g" transform="matrix(1,0,0,1,445,465) translate(9.937098765432106 30.27777777777778)"/><use xlink:href="#h" transform="matrix(1,0,0,1,445,465) translate(56.665493827160496 30.27777777777778)"/><path d="M754.45 465.8A7.8 7.8 0 0 1 762 460h132a4.6 4.6 0 0 1 4.45 5.8l-12.9 48.4A7.8 7.8 0 0 1 878 520H746a4.6 4.6 0 0 1-4.45-5.8z" fill="#eec4ff" fill-opacity=".43"/><path d="M784 460h22m11 0h22m11 0h22m11 0h11l.84.08.8.23.77.38.68.5.57.62.46.7.32.8.16.82.02.85-.15.83-2.15 8.06m-2.15 8.07l-4.3 16.14m-2.15 8.06l-2.15 8.07-.33.97-.45.92-.57.84-.67.77-.77.68-.85.57-.9.45-.98.33-1 .2-1.02.07h-11m-11 0h-22m-11 0h-22m-11 0h-22m-11 0h-11l-.84-.08-.8-.23-.77-.38-.68-.5-.57-.62-.46-.7-.32-.8-.16-.82-.02-.85.15-.83 2.15-8.07m2.15-8.06l4.3-16.14m2.15-8.06l2.15-8.07.33-.97.45-.92.57-.84.67-.77.77-.68.85-.57.9-.45.98-.33 1-.2L762 460h11" stroke="#eec4ff" stroke-width="2" fill="none"/><path d="M594.03 490h10.13m10.13 0h20.25m10.13 0h20.26m10.12 0h20.26m10.13 0h20.26m10.14 0h10.13" stroke="#1071e5" stroke-width="2" fill="none"/><path d="M594.06 490.98h-1.28l.5-1.96h.78zM746.7 490.98h-.76v-1.96h1.28zM459.3 581.67h-1.94V573h1.95zm0-30h-1.94V539.5h1.95z" stroke="#1071e5" stroke-width=".05" fill="#1071e5"/><path d="M459.3 582.67h-1.94v-1.03h1.95z" fill="#1071e5"/><path stroke="#1071e5" stroke-width=".05" fill="#1071e5"/><path d="M462.97 538.5h-9.27l4.63-14.26z" fill="#1071e5"/><path d="M464.3 539.48h-11.94l5.97-18.4zm-9.26-1.95h6.6l-3.3-10.14z" stroke="#1071e5" stroke-width=".05" fill="#1071e5"/><use xlink:href="#i" transform="matrix(1,0,0,1,438.13567634002203,551.660362029547) translate(0 14.222222222222223)"/><path d="M1135.15 786.5a6 6 0 0 1 6-6h178a6 6 0 0 1 6 6v51.67a6 6 0 0 1-6 6h-178a6 6 0 0 1-6-6z" stroke="#febed9" stroke-width="2" fill="#fff0f0"/><use xlink:href="#j" transform="matrix(1,0,0,1,1147.1543898789537,792.4999999999998) translate(20.65432098765433 25.27777777777778)"/><use xlink:href="#k" transform="matrix(1,0,0,1,1147.1543898789537,792.4999999999998) translate(93.49382716049382 25.27777777777778)"/><path d="M1164.6 646.3a7.8 7.8 0 0 1 7.55-5.8h132a4.6 4.6 0 0 1 4.46 5.8l-12.9 48.4a7.8 7.8 0 0 1-7.55 5.8h-132a4.6 4.6 0 0 1-4.45-5.8z" fill="#eec4ff" fill-opacity=".43"/><path d="M1194.15 640.5h22m11 0h22m11 0h22m11 0h11l.84.08.8.23.76.38.68.5.57.62.46.7.3.8.18.82v.85l-.13.83-2.14 8.07m-2.15 8.06l-4.3 16.14m-2.15 8.06l-2.15 8.07-.33.97-.45.92-.57.84-.67.77-.77.68-.84.57-.9.45-.98.33-1 .2-1.03.07h-11m-11 0h-22m-11 0h-22m-11 0h-22m-11 0h-11l-.84-.08-.8-.23-.75-.38-.68-.5-.57-.62-.45-.7-.3-.8-.18-.82v-.85l.13-.83 2.15-8.07m2.15-8.06l4.3-16.14m2.16-8.06l2.15-8.07.34-.97.45-.92.55-.84.68-.77.77-.68.85-.57.9-.45.98-.33 1-.2 1.02-.07h11" stroke="#eec4ff" stroke-width="2" fill="none"/><path d="M1135.15 496.5a6 6 0 0 1 6-6h178a6 6 0 0 1 6 6v51.67a6 6 0 0 1-6 6h-178a6 6 0 0 1-6-6z" stroke="#febed9" stroke-width="2" fill="#fff0f0"/><use xlink:href="#l" transform="matrix(1,0,0,1,1147.1543898789537,502.4999999999997) translate(59.574074074074076 25.27777777777778)"/><path d="M1164.6 356.3a7.8 7.8 0 0 1 7.55-5.8h132a4.6 4.6 0 0 1 4.46 5.8l-12.9 48.4a7.8 7.8 0 0 1-7.55 5.8h-132a4.6 4.6 0 0 1-4.45-5.8z" fill="#eec4ff" fill-opacity=".43"/><path d="M1194.15 350.5h22m11 0h22m11 0h22m11 0h11l.84.08.8.23.76.38.68.5.57.62.46.7.3.8.18.82v.85l-.13.83-2.14 8.06m-2.15 8.07l-4.3 16.14m-2.15 8.06l-2.15 8.07-.33.97-.45.92-.57.84-.67.77-.77.68-.84.57-.9.45-.98.33-1 .2-1.03.07h-11m-11 0h-22m-11 0h-22m-11 0h-22m-11 0h-11l-.84-.08-.8-.23-.75-.38-.68-.5-.57-.62-.45-.7-.3-.8-.18-.82v-.85l.13-.83 2.15-8.06m2.15-8.07l4.3-16.14m2.16-8.06l2.15-8.07.34-.97.45-.92.55-.84.68-.77.77-.68.85-.57.9-.45.98-.33 1-.2 1.02-.07h11" stroke="#eec4ff" stroke-width="2" fill="none"/><path d="M324.5 616.98h-32V614h32zm78.88 0H390.5V614h12.88z" stroke="#3a414a" stroke-width=".05" fill="#3a414a"/><path d="M292.54 616.98H291V614h1.54z" fill="#3a414a"/><path stroke="#3a414a" stroke-width=".05" fill="#3a414a"/><path d="M419.15 615.5l-14.27 4.63v-9.26z" fill="#3a414a"/><path d="M423.92 615.5l-20.52 6.66v-13.32zm-17.56 2.6l8-2.6-8-2.6z" stroke="#3a414a" stroke-width=".05" fill="#3a414a"/><use xlink:href="#m" transform="matrix(1,0,0,1,324.4876543209873,604.8333333333331) translate(0 14.222222222222223)"/><use xlink:href="#n" transform="matrix(1,0,0,1,324.4876543209873,604.8333333333331) translate(38.41975308641975 14.222222222222223)"/><path d="M725 589.67a6 6 0 0 1 6-6h178a6 6 0 0 1 6 6v51.66a6 6 0 0 1-6 6H731a6 6 0 0 1-6-6z" stroke="#febed9" stroke-width="2" fill="#fff0f0"/><use xlink:href="#o" transform="matrix(1,0,0,1,737,595.6666666666665) translate(41.73456790123457 25.27777777777778)"/><use xlink:href="#p" transform="matrix(1,0,0,1,737,595.6666666666665) translate(89.75925925925927 25.27777777777778)"/><path d="M425 589.67a6 6 0 0 1 6-6h178a6 6 0 0 1 6 6v51.66a6 6 0 0 1-6 6H431a6 6 0 0 1-6-6z" stroke="#febed9" stroke-width="2" fill="#fff0f0"/><use xlink:href="#q" transform="matrix(1,0,0,1,437,595.6666666666665) translate(36.179012345679006 25.27777777777778)"/><path d="M898.15 474.57h10.25m10.25 0h20.5m10.24 0h20.5m10.24 0h20.5m10.25 0h10.24l.93-.08.92-.23.86-.36.8-.48.72-.6.6-.73.5-.8.36-.88.22-.92.08-.93v-9.12m0-9.12V432.1m0-9.13v-18.23m0-9.12v-9.12l.07-.94.23-.9.36-.88.48-.8.6-.72.73-.6.8-.5.88-.37.92-.23.93-.07h10.25m10.25 0h20.5m10.25 0h20.5m10.24 0h20.5m10.25 0h10.25" stroke="#1071e5" stroke-width="2" fill="none"/><path d="M898.18 475.54h-1.3l.53-1.95h.78zM1156.86 381.48h-.77v-1.96h1.28zM1033.2 664.46l.05.83.2.75.3.73.4.67.5.6.6.5.68.43.73.3.77.18.82.06h9.8v1.96h-9.88l-1.05-.1-1.06-.24-1.02-.42-.93-.58-.82-.7-.7-.84-.6-.93-.4-1-.26-1.08-.08-1.06v-10.48h1.95zm44.32 7h-19.66v-1.94h19.66zm29.47 0h-19.66v-1.94H1107zm29.47 0h-19.65v-1.94h19.65zm19.65 0h-9.83v-1.94h9.82zm-122.93-27.83h-1.96v-20.87h1.95zm0-31.3h-1.96v-20.88h1.95zm0-31.32h-1.96v-20.86h1.95zm0-31.3h-1.96v-20.87h1.95zm-5.9-48.63l1.07.25 1 .42.94.57.85.73.7.83.58.93.42 1 .25 1.07.1 1.05v10.48h-1.96V508l-.07-.83-.18-.76-.3-.72-.42-.67-.52-.6-.6-.5-.67-.4-.74-.32-.76-.18-.83-.06h-8.98V501h9.05zm-127.43 1.87h-9.02V501h9.02zm27.07 0H908.9V501h18.04zm27.08 0h-18.05V501h18.05zm27.07 0h-18.06V501h18.05zm27.06 0h-18.04V501h18.04z" stroke="#1071e5" stroke-width=".05" fill="#1071e5"/><path d="M890.87 502.94h-1.28l.5-1.95h.77z" fill="#1071e5"/><path stroke="#1071e5" stroke-width=".05" fill="#1071e5"/><path d="M1156.86 671.48h-.77v-1.96h1.28z" fill="#1071e5"/><path stroke="#1071e5" stroke-width=".05" fill="#1071e5"/><path d="M1011.63 594l-.1 1.1-.26 1.15-.45 1.08-.62 1-.76.9-.9.76-1 .6-1.07.45-1.15.28-1.1.08H917.5v-2.94h86.6l.76-.06.7-.16.65-.27.6-.38.55-.47.46-.54.38-.6.27-.67.17-.7.06-.75v-37h2.95zm101.9-70.2h-97.32l-.75.07-.7.16-.65.28-.6.38-.54.46-.46.54-.37.6-.27.66-.17.7-.07.75v7.15h-2.95v-7.27l.1-1.12.26-1.14.45-1.08.6-1 .77-.9.9-.76 1-.6 1.07-.46 1.14-.27 1.12-.1h97.43z" stroke="#3a414a" stroke-width=".05" fill="#3a414a"/><path d="M917.54 601.4H916v-2.94h1.54z" fill="#3a414a"/><path stroke="#3a414a" stroke-width=".05" fill="#3a414a"/><path d="M1129.3 522.33l-14.26 4.64v-9.27z" fill="#3a414a"/><path d="M1134.07 522.33l-20.5 6.67v-13.33zm-17.56 2.6l8.03-2.6-8.02-2.6z" stroke="#3a414a" stroke-width=".05" fill="#3a414a"/><use xlink:href="#r" transform="matrix(1,0,0,1,995.3642664221636,535.5457295117493) translate(0 14.222222222222223)"/><path d="M1011.63 806.27l.06.77.15.7.28.65.37.6.46.53.54.46.6.36.66.27.7.17.75.06h97.33v2.95h-97.43l-1.12-.08-1.14-.27-1.08-.45-1-.62-.9-.76-.76-.9-.6-1-.46-1.08-.27-1.14-.1-1.1v-59.64h2.96zm-6.3-177.66l1.14.3 1.08.44 1 .6.9.77.75.9.62 1 .45 1.1.27 1.13.1 1.1v89.5h-2.96v-89.37l-.06-.77-.17-.7-.27-.65-.37-.6-.45-.55-.54-.46-.6-.37-.65-.27-.7-.17-.75-.05h-86.6v-2.96h86.7z" stroke="#3a414a" stroke-width=".05" fill="#3a414a"/><path d="M917.54 631.48H916v-2.96h1.54z" fill="#3a414a"/><path stroke="#3a414a" stroke-width=".05" fill="#3a414a"/><path d="M1129.3 812.33l-14.26 4.64v-9.27z" fill="#3a414a"/><path d="M1134.07 812.33l-20.5 6.67v-13.33zm-17.56 2.6l8.03-2.6-8.02-2.6z" stroke="#3a414a" stroke-width=".05" fill="#3a414a"/><use xlink:href="#s" transform="matrix(1,0,0,1,989.4136491382129,725.422818125058) translate(0 14.222222222222223)"/><path d="M617.5 615.5h85.88" stroke="#3a414a" stroke-width="3" fill="none"/><path d="M617.54 616.98H616V614h1.54z" stroke="#3a414a" stroke-width=".05" fill="#3a414a"/><path d="M719.14 615.5l-14.26 4.63v-9.26z" stroke="#3a414a" stroke-width="3" fill="#3a414a"/><path d="M723 628.35h-88.5" stroke="#54c45e" stroke-width="2" fill="none"/><path d="M724 629.33h-1.03v-1.95H724z" stroke="#54c45e" stroke-width=".05" fill="#54c45e"/><path d="M619.24 628.35l14.26-4.63V633z" stroke="#54c45e" stroke-width="2" fill="#54c45e"/><path d="M575.4 581.67h-1.94v-7.58h1.95zm0-28.9h-1.94V539.5h1.95z" stroke="#008a0e" stroke-width=".05" fill="#008a0e"/><path d="M575.4 582.67h-1.94v-1.03h1.95z" fill="#008a0e"/><path stroke="#008a0e" stroke-width=".05" fill="#008a0e"/><path d="M579.07 538.5h-9.27l4.63-14.26z" fill="#008a0e"/><path d="M580.4 539.48h-11.94l5.97-18.4zm-9.26-1.95h6.6l-3.3-10.14z" stroke="#008a0e" stroke-width=".05" fill="#008a0e"/><g><use xlink:href="#t" transform="matrix(1,0,0,1,554.7528696352136,552.7607716249333) translate(0 14.222222222222223)"/></g><defs><path fill="#3a414a" d="M24-248c93 1 206-16 204 79-1 75-69 88-152 82V0H24v-248zm52 121c47 0 100 7 100-41 0-47-54-39-100-39v80" id="u"/><path fill="#3a414a" d="M185-48c-13 30-37 53-82 52C43 2 14-33 14-96s30-98 90-98c62 0 83 45 84 108H66c0 31 8 55 39 56 18 0 30-7 34-22zm-45-69c5-46-57-63-70-21-2 6-4 13-4 21h74" id="v"/><path fill="#3a414a" d="M115-3C79 11 28 4 28-45v-112H4v-33h27l15-45h31v45h36v33H77v99c-1 23 16 31 38 25v30" id="w"/><g id="a"><use transform="matrix(0.06172839506172839,0,0,0.06172839506172839,0,0)" xlink:href="#u"/><use transform="matrix(0.06172839506172839,0,0,0.06172839506172839,14.814814814814813,0)" xlink:href="#v"/><use transform="matrix(0.06172839506172839,0,0,0.06172839506172839,27.160493827160494,0)" xlink:href="#w"/></g><path fill="#3a414a" d="M199 0l-22-63H83L61 0H9l90-248h61L250 0h-51zm-33-102l-36-108c-10 38-24 72-36 108h72" id="x"/><path fill="#3a414a" d="M190-63c-7 42-38 67-86 67-59 0-84-38-90-98-12-110 154-137 174-36l-49 2c-2-19-15-32-35-32-30 0-35 28-38 64-6 74 65 87 74 30" id="y"/><path fill="#3a414a" d="M25-224v-37h50v37H25zM25 0v-190h50V0H25" id="z"/><path fill="#3a414a" d="M110-194c64 0 96 36 96 99 0 64-35 99-97 99-61 0-95-36-95-99 0-62 34-99 96-99zm-1 164c35 0 45-28 45-65 0-40-10-65-43-65-34 0-45 26-45 65 0 36 10 65 43 65" id="A"/><path fill="#3a414a" d="M135-194c87-1 58 113 63 194h-50c-7-57 23-157-34-157-59 0-34 97-39 157H25l-1-190h47c2 12-1 28 3 38 12-26 28-41 61-42" id="B"/><path fill="#3a414a" d="M137-138c1-29-70-34-71-4 15 46 118 7 119 86 1 83-164 76-172 9l43-7c4 19 20 25 44 25 33 8 57-30 24-41C81-84 22-81 20-136c-2-80 154-74 161-7" id="C"/><g id="b"><use transform="matrix(0.06172839506172839,0,0,0.06172839506172839,0,0)" xlink:href="#x"/><use transform="matrix(0.06172839506172839,0,0,0.06172839506172839,15.987654320987653,0)" xlink:href="#y"/><use transform="matrix(0.06172839506172839,0,0,0.06172839506172839,28.333333333333332,0)" xlink:href="#w"/><use transform="matrix(0.06172839506172839,0,0,0.06172839506172839,35.67901234567901,0)" xlink:href="#z"/><use transform="matrix(0.06172839506172839,0,0,0.06172839506172839,41.851851851851855,0)" xlink:href="#A"/><use transform="matrix(0.06172839506172839,0,0,0.06172839506172839,55.370370370370374,0)" xlink:href="#B"/><use transform="matrix(0.06172839506172839,0,0,0.06172839506172839,68.88888888888889,0)" xlink:href="#C"/></g><path fill="#3a414a" d="M24-248c120-7 223 5 221 122C244-46 201 0 124 0H24v-248zM76-40c74 7 117-18 117-86 0-67-45-88-117-82v168" id="D"/><path fill="#3a414a" d="M133-34C117-15 103 5 69 4 32 3 11-16 11-54c-1-60 55-63 116-61 1-26-3-47-28-47-18 1-26 9-28 27l-52-2c7-38 36-58 82-57s74 22 75 68l1 82c-1 14 12 18 25 15v27c-30 8-71 5-69-32zm-48 3c29 0 43-24 42-57-32 0-66-3-65 30 0 17 8 27 23 27" id="E"/><path fill="#3a414a" d="M135-150c-39-12-60 13-60 57V0H25l-1-190h47c2 13-1 29 3 40 6-28 27-53 61-41v41" id="F"/><g id="c"><use transform="matrix(0.06172839506172839,0,0,0.06172839506172839,0,0)" xlink:href="#D"/><use transform="matrix(0.06172839506172839,0,0,0.06172839506172839,15.987654320987653,0)" xlink:href="#E"/><use transform="matrix(0.06172839506172839,0,0,0.06172839506172839,28.333333333333332,0)" xlink:href="#w"/><use transform="matrix(0.06172839506172839,0,0,0.06172839506172839,35.67901234567901,0)" xlink:href="#E"/><use transform="matrix(0.06172839506172839,0,0,0.06172839506172839,48.02469135802469,0)" xlink:href="#C"/><use transform="matrix(0.06172839506172839,0,0,0.06172839506172839,60.37037037037037,0)" xlink:href="#w"/><use transform="matrix(0.06172839506172839,0,0,0.06172839506172839,67.71604938271605,0)" xlink:href="#A"/><use transform="matrix(0.06172839506172839,0,0,0.06172839506172839,81.23456790123457,0)" xlink:href="#F"/><use transform="matrix(0.06172839506172839,0,0,0.06172839506172839,89.87654320987654,0)" xlink:href="#v"/></g><path fill="#3a414a" d="M169-182c-1-43-94-46-97-3 18 66 151 10 154 114 3 95-165 93-204 36-6-8-10-19-12-30l50-8c3 46 112 56 116 5-17-69-150-10-154-114-4-87 153-88 188-35 5 8 8 18 10 28" id="G"/><path fill="#3a414a" d="M128 0H69L1-190h53L99-40l48-150h52" id="H"/><g id="d"><use transform="matrix(0.06172839506172839,0,0,0.06172839506172839,0,0)" xlink:href="#G"/><use transform="matrix(0.06172839506172839,0,0,0.06172839506172839,14.814814814814813,0)" xlink:href="#v"/><use transform="matrix(0.06172839506172839,0,0,0.06172839506172839,27.160493827160494,0)" xlink:href="#F"/><use transform="matrix(0.06172839506172839,0,0,0.06172839506172839,35.80246913580247,0)" xlink:href="#H"/><use transform="matrix(0.06172839506172839,0,0,0.06172839506172839,48.148148148148145,0)" xlink:href="#z"/><use transform="matrix(0.06172839506172839,0,0,0.06172839506172839,54.32098765432099,0)" xlink:href="#y"/><use transform="matrix(0.06172839506172839,0,0,0.06172839506172839,66.66666666666667,0)" xlink:href="#v"/></g><g id="e"><use transform="matrix(0.06172839506172839,0,0,0.06172839506172839,0,0)" xlink:href="#u"/><use transform="matrix(0.06172839506172839,0,0,0.06172839506172839,14.814814814814813,0)" xlink:href="#v"/><use transform="matrix(0.06172839506172839,0,0,0.06172839506172839,27.160493827160494,0)" xlink:href="#w"/></g><path fill="#3a414a" d="M25 0v-261h50V0H25" id="I"/><path fill="#3a414a" d="M123 10C108 53 80 86 19 72V37c35 8 53-11 59-39L3-190h52l48 148c12-52 28-100 44-148h51" id="J"/><g id="f"><use transform="matrix(0.06172839506172839,0,0,0.06172839506172839,0,0)" xlink:href="#u"/><use transform="matrix(0.06172839506172839,0,0,0.06172839506172839,14.814814814814813,0)" xlink:href="#I"/><use transform="matrix(0.06172839506172839,0,0,0.06172839506172839,20.98765432098765,0)" xlink:href="#E"/><use transform="matrix(0.06172839506172839,0,0,0.06172839506172839,33.33333333333333,0)" xlink:href="#J"/><use transform="matrix(0.06172839506172839,0,0,0.06172839506172839,45.679012345679006,0)" xlink:href="#v"/><use transform="matrix(0.06172839506172839,0,0,0.06172839506172839,58.02469135802468,0)" xlink:href="#F"/></g><path fill="#3a414a" d="M24 0v-248h52v208h133V0H24" id="K"/><path fill="#3a414a" d="M195-6C206 82 75 100 31 46c-4-6-6-13-8-21l49-6c3 16 16 24 34 25 40 0 42-37 40-79-11 22-30 35-61 35-53 0-70-43-70-97 0-56 18-96 73-97 30 0 46 14 59 34l2-30h47zm-90-29c32 0 41-27 41-63 0-35-9-62-40-62-32 0-39 29-40 63 0 36 9 62 39 62" id="L"/><g id="g"><use transform="matrix(0.06172839506172839,0,0,0.06172839506172839,0,0)" xlink:href="#K"/><use transform="matrix(0.06172839506172839,0,0,0.06172839506172839,13.518518518518517,0)" xlink:href="#A"/><use transform="matrix(0.06172839506172839,0,0,0.06172839506172839,27.037037037037035,0)" xlink:href="#L"/></g><path fill="#3a414a" d="M67-125c0 53 21 87 73 88 37 1 54-22 65-47l45 17C233-25 199 4 140 4 58 4 20-42 15-125 8-235 124-281 211-232c18 10 29 29 36 50l-46 12c-8-25-30-41-62-41-52 0-71 34-72 86" id="M"/><path fill="#3a414a" d="M144 0l-44-69L55 0H2l70-98-66-92h53l41 62 40-62h54l-67 91 71 99h-54" id="N"/><g id="h"><use transform="matrix(0.06172839506172839,0,0,0.06172839506172839,0,0)" xlink:href="#M"/><use transform="matrix(0.06172839506172839,0,0,0.06172839506172839,15.987654320987653,0)" xlink:href="#A"/><use transform="matrix(0.06172839506172839,0,0,0.06172839506172839,29.50617283950617,0)" xlink:href="#B"/><use transform="matrix(0.06172839506172839,0,0,0.06172839506172839,43.02469135802469,0)" xlink:href="#w"/><use transform="matrix(0.06172839506172839,0,0,0.06172839506172839,50.37037037037037,0)" xlink:href="#v"/><use transform="matrix(0.06172839506172839,0,0,0.06172839506172839,62.716049382716044,0)" xlink:href="#N"/><use transform="matrix(0.06172839506172839,0,0,0.06172839506172839,75.06172839506172,0)" xlink:href="#w"/></g><g id="i"><use transform="matrix(0.04938271604938272,0,0,0.04938271604938272,0,0)" xlink:href="#G"/><use transform="matrix(0.04938271604938272,0,0,0.04938271604938272,11.851851851851853,0)" xlink:href="#w"/><use transform="matrix(0.04938271604938272,0,0,0.04938271604938272,17.728395061728396,0)" xlink:href="#E"/><use transform="matrix(0.04938271604938272,0,0,0.04938271604938272,27.60493827160494,0)" xlink:href="#F"/><use transform="matrix(0.04938271604938272,0,0,0.04938271604938272,34.51851851851852,0)" xlink:href="#w"/></g><g id="j"><use transform="matrix(0.06172839506172839,0,0,0.06172839506172839,0,0)" xlink:href="#u"/><use transform="matrix(0.06172839506172839,0,0,0.06172839506172839,14.814814814814813,0)" xlink:href="#I"/><use transform="matrix(0.06172839506172839,0,0,0.06172839506172839,20.98765432098765,0)" xlink:href="#E"/><use transform="matrix(0.06172839506172839,0,0,0.06172839506172839,33.33333333333333,0)" xlink:href="#J"/><use transform="matrix(0.06172839506172839,0,0,0.06172839506172839,45.679012345679006,0)" xlink:href="#v"/><use transform="matrix(0.06172839506172839,0,0,0.06172839506172839,58.02469135802468,0)" xlink:href="#F"/></g><g id="k"><use transform="matrix(0.06172839506172839,0,0,0.06172839506172839,0,0)" xlink:href="#G"/><use transform="matrix(0.06172839506172839,0,0,0.06172839506172839,14.814814814814813,0)" xlink:href="#E"/><use transform="matrix(0.06172839506172839,0,0,0.06172839506172839,27.160493827160494,0)" xlink:href="#H"/><use transform="matrix(0.06172839506172839,0,0,0.06172839506172839,39.50617283950617,0)" xlink:href="#v"/></g><g id="l"><use transform="matrix(0.06172839506172839,0,0,0.06172839506172839,0,0)" xlink:href="#u"/><use transform="matrix(0.06172839506172839,0,0,0.06172839506172839,14.814814814814813,0)" xlink:href="#v"/><use transform="matrix(0.06172839506172839,0,0,0.06172839506172839,27.160493827160494,0)" xlink:href="#w"/><use transform="matrix(0.06172839506172839,0,0,0.06172839506172839,34.50617283950617,0)" xlink:href="#C"/></g><path fill="#3a414a" d="M182-130c37 4 62 22 62 59C244 23 116-4 24 0v-248c84 5 203-23 205 63 0 31-19 50-47 55zM76-148c40-3 101 13 101-30 0-44-60-28-101-31v61zm0 110c48-3 116 14 116-37 0-48-69-32-116-35v72" id="O"/><path fill="#3a414a" d="M85 4C-2 5 27-109 22-190h50c7 57-23 150 33 157 60-5 35-97 40-157h50l1 190h-47c-2-12 1-28-3-38-12 25-28 42-61 42" id="P"/><g id="m"><use transform="matrix(0.04938271604938272,0,0,0.04938271604938272,0,0)" xlink:href="#O"/><use transform="matrix(0.04938271604938272,0,0,0.04938271604938272,12.790123456790125,0)" xlink:href="#P"/><use transform="matrix(0.04938271604938272,0,0,0.04938271604938272,23.60493827160494,0)" xlink:href="#J"/></g><g id="n"><use transform="matrix(0.04938271604938272,0,0,0.04938271604938272,0,0)" xlink:href="#u"/><use transform="matrix(0.04938271604938272,0,0,0.04938271604938272,11.851851851851853,0)" xlink:href="#v"/><use transform="matrix(0.04938271604938272,0,0,0.04938271604938272,21.7283950617284,0)" xlink:href="#w"/></g><g id="o"><use transform="matrix(0.06172839506172839,0,0,0.06172839506172839,0,0)" xlink:href="#O"/><use transform="matrix(0.06172839506172839,0,0,0.06172839506172839,15.987654320987653,0)" xlink:href="#P"/><use transform="matrix(0.06172839506172839,0,0,0.06172839506172839,29.50617283950617,0)" xlink:href="#J"/></g><g id="p"><use transform="matrix(0.06172839506172839,0,0,0.06172839506172839,0,0)" xlink:href="#u"/><use transform="matrix(0.06172839506172839,0,0,0.06172839506172839,14.814814814814813,0)" xlink:href="#v"/><use transform="matrix(0.06172839506172839,0,0,0.06172839506172839,27.160493827160494,0)" xlink:href="#w"/></g><path fill="#3a414a" d="M240-174c0 40-23 61-54 70L253 0h-59l-57-94H76V0H24v-248c93 4 217-23 216 74zM76-134c48-2 112 12 112-38 0-48-66-32-112-35v73" id="Q"/><path fill="#3a414a" d="M220-157c-53 9-28 100-34 157h-49v-107c1-27-5-49-29-50C55-147 81-57 75 0H25l-1-190h47c2 12-1 28 3 38 10-53 101-56 108 0 13-22 24-43 59-42 82 1 51 116 57 194h-49v-107c-1-25-5-48-29-50" id="R"/><g id="q"><use transform="matrix(0.06172839506172839,0,0,0.06172839506172839,0,0)" xlink:href="#Q"/><use transform="matrix(0.06172839506172839,0,0,0.06172839506172839,15.987654320987653,0)" xlink:href="#v"/><use transform="matrix(0.06172839506172839,0,0,0.06172839506172839,28.333333333333332,0)" xlink:href="#R"/><use transform="matrix(0.06172839506172839,0,0,0.06172839506172839,48.08641975308642,0)" xlink:href="#A"/><use transform="matrix(0.06172839506172839,0,0,0.06172839506172839,61.60493827160494,0)" xlink:href="#w"/><use transform="matrix(0.06172839506172839,0,0,0.06172839506172839,68.95061728395062,0)" xlink:href="#v"/><use transform="matrix(0.06172839506172839,0,0,0.06172839506172839,81.2962962962963,0)" xlink:href="#C"/></g><path fill="#3a414a" d="M67-125c0 54 23 88 75 88 28 0 53-7 68-21v-34h-60v-39h108v91C232-14 192 4 140 4 58 4 20-42 15-125 8-236 126-280 215-234c19 10 29 26 37 47l-47 15c-11-23-29-39-63-39-53 1-75 33-75 86" id="S"/><g id="r"><use transform="matrix(0.04938271604938272,0,0,0.04938271604938272,0,0)" xlink:href="#S"/><use transform="matrix(0.04938271604938272,0,0,0.04938271604938272,13.827160493827162,0)" xlink:href="#v"/><use transform="matrix(0.04938271604938272,0,0,0.04938271604938272,23.703703703703706,0)" xlink:href="#w"/></g><g id="s"><use transform="matrix(0.04938271604938272,0,0,0.04938271604938272,0,0)" xlink:href="#G"/><use transform="matrix(0.04938271604938272,0,0,0.04938271604938272,11.851851851851853,0)" xlink:href="#E"/><use transform="matrix(0.04938271604938272,0,0,0.04938271604938272,21.7283950617284,0)" xlink:href="#H"/><use transform="matrix(0.04938271604938272,0,0,0.04938271604938272,31.60493827160494,0)" xlink:href="#v"/></g><path fill="#3a414a" d="M135-194c53 0 70 44 70 98 0 56-19 98-73 100-31 1-45-17-59-34 3 33 2 69 2 105H25l-1-265h48c2 10 0 23 3 31 11-24 29-35 60-35zM114-30c33 0 39-31 40-66 0-38-9-64-40-64-56 0-55 130 0 130" id="T"/><g id="t"><use transform="matrix(0.04938271604938272,0,0,0.04938271604938272,0,0)" xlink:href="#G"/><use transform="matrix(0.04938271604938272,0,0,0.04938271604938272,11.851851851851853,0)" xlink:href="#w"/><use transform="matrix(0.04938271604938272,0,0,0.04938271604938272,17.728395061728396,0)" xlink:href="#A"/><use transform="matrix(0.04938271604938272,0,0,0.04938271604938272,28.543209876543205,0)" xlink:href="#T"/></g></defs></g></svg>