<?xml version="1.0" encoding="utf-8"?>
<!-- Generator: Adobe Illustrator 24.1.2, SVG Export Plug-In . SVG Version: 6.00 Build 0)  -->
<svg version="1.1" id="Layer_1" xmlns="http://www.w3.org/2000/svg" xmlns:xlink="http://www.w3.org/1999/xlink" x="0px" y="0px"
	 viewBox="0 0 128 128" style="enable-background:new 0 0 128 128;" xml:space="preserve">
<style type="text/css">
	.st0{fill:#C83737;}
	.st1{fill:#FFFFFF;}
</style>
<rect x="14.7" y="14.6" transform="matrix(0.9316 0.3635 -0.3635 0.9316 27.6464 -18.9241)" class="st0" width="98.8" height="98.8"/>
<g id="layer1" transform="translate(0,-284.29998)">
	<path id="path4487" class="st1" d="M34.8,319l59.1,0v5.9H34.8V319z"/>
	<path id="path4507" class="st1" d="M34.8,330.8l59.1,0v5.9H34.8V330.8z"/>
	<path id="path4511" class="st1" d="M34.8,342.6l23.6,0v5.9l-23.6,0V342.6z"/>
	<path id="path4513" class="st1" d="M34.8,354.4h23.6v5.9H34.8V354.4z"/>
	<path id="path4548" class="st1" d="M34.8,366.2h23.6v5.9H34.8V366.2z"/>
	
		<rect x="89.8" y="364.3" transform="matrix(0.7071 -0.7071 0.7071 0.7071 -235.1472 174.2125)" class="st1" width="5.9" height="13.4"/>
	<path id="path4564" class="st1" d="M79.1,342.6c-8.2,0-14.8,6.6-14.8,14.8c0,8.2,6.6,14.8,14.8,14.8s14.8-6.6,14.8-14.8
		C93.9,349.2,87.3,342.6,79.1,342.6z M79.1,348.5c4.9,0,8.9,4,8.9,8.9c0,0,0,0,0,0c0,4.9-4,8.9-8.9,8.9c-4.9,0-8.9-4-8.9-8.9
		C70.3,352.5,74.2,348.5,79.1,348.5C79.1,348.5,79.1,348.5,79.1,348.5z"/>
</g>
</svg>
